<svg width="25" height="25" viewBox="0 0 25 25" fill="none" xmlns="http://www.w3.org/2000/svg">
<path fill-rule="evenodd" clip-rule="evenodd" d="M2.72701 2.43443C2.85753 2.35368 3.00653 2.30765 3.15986 2.30072C3.31318 2.29379 3.46573 2.32619 3.60301 2.39483L22.203 11.6948C22.3526 11.7695 22.4785 11.8844 22.5664 12.0267C22.6544 12.1689 22.7009 12.3328 22.7009 12.5C22.7009 12.6672 22.6544 12.8312 22.5664 12.9734C22.4785 13.1156 22.3526 13.2305 22.203 13.3052L3.60301 22.6052C3.46575 22.674 3.31318 22.7065 3.1598 22.6997C3.00643 22.6929 2.85735 22.6469 2.72674 22.5662C2.59614 22.4855 2.48834 22.3728 2.41361 22.2387C2.33889 22.1046 2.29971 21.9536 2.29981 21.8V14.5448C2.29981 13.7288 2.66221 12.9968 3.23581 12.5C2.94176 12.2467 2.70589 11.9328 2.54435 11.5799C2.3828 11.227 2.29939 10.8434 2.29981 10.4552V3.20003C2.29984 3.04658 2.33911 2.89569 2.41388 2.76169C2.48865 2.62769 2.59644 2.51504 2.72701 2.43443ZM4.09981 4.65683V10.4552C4.0997 10.6892 4.19072 10.914 4.35358 11.0821C4.51644 11.2501 4.73833 11.3481 4.97221 11.3552L12.8274 11.6C13.0661 11.6 13.295 11.6948 13.4638 11.8636C13.6326 12.0324 13.7274 12.2613 13.7274 12.5C13.7274 12.7387 13.6326 12.9676 13.4638 13.1364C13.295 13.3052 13.0661 13.4 12.8274 13.4L4.97221 13.6448C4.73833 13.652 4.51644 13.75 4.35358 13.918C4.19072 14.086 4.0997 14.3108 4.09981 14.5448V20.3432L19.7874 12.5L4.09981 4.65683Z" fill="#AAAAAA"/>
</svg>
