<svg width="25" height="25" viewBox="0 0 25 25" fill="none" xmlns="http://www.w3.org/2000/svg">
<path fill-rule="evenodd" clip-rule="evenodd" d="M4.41554 3.74182C4.13649 3.74182 3.91028 3.96803 3.91028 4.24708V9.29973C3.91028 9.57877 4.13649 9.80499 4.41554 9.80499H9.13129C9.41033 9.80499 9.63655 9.57877 9.63655 9.29972V4.24708C9.63655 3.96803 9.41034 3.74182 9.13129 3.74182H4.41554ZM2.22607 4.24708C2.22607 3.03788 3.20633 2.05762 4.41554 2.05762H9.13129C10.3405 2.05762 11.3208 3.03787 11.3208 4.24708V9.29972C11.3208 10.5089 10.3405 11.4892 9.13129 11.4892H4.41554C3.20633 11.4892 2.22607 10.5089 2.22607 9.29973V4.24708ZM15.8677 3.74182C15.5886 3.74182 15.3624 3.96803 15.3624 4.24708V9.29973C15.3624 9.57877 15.5886 9.80499 15.8677 9.80499H20.5834C20.8625 9.80499 21.0887 9.57877 21.0887 9.29972V4.24708C21.0887 3.96803 20.8625 3.74182 20.5834 3.74182H15.8677ZM13.6782 4.24708C13.6782 3.03787 14.6585 2.05762 15.8677 2.05762H20.5834C21.7926 2.05762 22.7729 3.03787 22.7729 4.24708V9.29972C22.7729 10.5089 21.7926 11.4892 20.5834 11.4892H15.8677C14.6585 11.4892 13.6782 10.5089 13.6782 9.29973V4.24708ZM4.41554 15.1944C4.13649 15.1944 3.91028 15.4206 3.91028 15.6997V20.7523C3.91028 21.0314 4.13649 21.2576 4.41554 21.2576H9.13129C9.41033 21.2576 9.63655 21.0314 9.63655 20.7523V15.6997C9.63655 15.4206 9.41034 15.1944 9.13129 15.1944H4.41554ZM2.22607 15.6997C2.22607 14.4905 3.20633 13.5102 4.41554 13.5102H9.13129C10.3405 13.5102 11.3208 14.4905 11.3208 15.6997V20.7523C11.3208 21.9615 10.3405 22.9418 9.13129 22.9418H4.41554C3.20633 22.9418 2.22607 21.9615 2.22607 20.7523V15.6997ZM15.8677 15.1944C15.5886 15.1944 15.3624 15.4206 15.3624 15.6997V20.7523C15.3624 21.0314 15.5886 21.2576 15.8677 21.2576H20.5834C20.8625 21.2576 21.0887 21.0314 21.0887 20.7523V15.6997C21.0887 15.4206 20.8625 15.1944 20.5834 15.1944H15.8677ZM13.6782 15.6997C13.6782 14.4905 14.6585 13.5102 15.8677 13.5102H20.5834C21.7926 13.5102 22.7729 14.4905 22.7729 15.6997V20.7523C22.7729 21.9615 21.7926 22.9418 20.5834 22.9418H15.8677C14.6585 22.9418 13.6782 21.9615 13.6782 20.7523V15.6997Z" fill="#AAAAAA"/>
</svg>
