<svg width="15" height="18" viewBox="0 0 15 18" fill="none" xmlns="http://www.w3.org/2000/svg">
<g clip-path="url(#clip0_2362_1754)">
<path d="M7.25732 4.08654C7.98535 4.08654 8.89795 3.57923 9.44141 2.90281C9.93359 2.28981 10.2925 1.43372 10.2925 0.577638C10.2925 0.461379 10.2822 0.345121 10.2617 0.25C9.45166 0.281707 8.47754 0.810155 7.89307 1.51828C7.43164 2.05729 7.01123 2.90281 7.01123 3.76947C7.01123 3.8963 7.03174 4.02313 7.04199 4.0654C7.09326 4.07597 7.17529 4.08654 7.25732 4.08654ZM4.69385 16.875C5.68848 16.875 6.12939 16.188 7.37012 16.188C8.63135 16.188 8.9082 16.8539 10.0156 16.8539C11.1025 16.8539 11.8306 15.8181 12.5176 14.8035C13.2866 13.6409 13.6045 12.4994 13.625 12.4466C13.5532 12.4255 11.4717 11.5482 11.4717 9.08566C11.4717 6.95073 13.1123 5.98895 13.2046 5.91497C12.1177 4.30849 10.4668 4.26621 10.0156 4.26621C8.79541 4.26621 7.80078 5.02718 7.17529 5.02718C6.49854 5.02718 5.60645 4.30849 4.55029 4.30849C2.54053 4.30849 0.5 6.02066 0.5 9.25477C0.5 11.2629 1.25879 13.3872 2.19189 14.7612C2.9917 15.9238 3.68896 16.875 4.69385 16.875Z" fill="white"/>
</g>
<defs>
<clipPath id="clip0_2362_1754">
<rect width="14" height="17.5" fill="white" transform="translate(0.5 0.25)"/>
</clipPath>
</defs>
</svg>
